<?xml version="1.0" standalone="no"?>
<!DOCTYPE svg PUBLIC "-//W3C//DTD SVG 20010904//EN"
 "http://www.w3.org/TR/2001/REC-SVG-20010904/DTD/svg10.dtd">
<svg version="1.0" xmlns="http://www.w3.org/2000/svg"
 width="530.000000pt" height="242.000000pt" viewBox="0 0 530.000000 242.000000"
 preserveAspectRatio="xMidYMid meet">

<g transform="translate(0.000000,242.000000) scale(0.100000,-0.100000)"
fill="#000000" stroke="none">
<path d="M690 2389 c-19 -5 -48 -25 -65 -43 -22 -24 -41 -34 -73 -39 -72 -9
-122 -71 -122 -149 1 -24 7 -54 15 -68 8 -14 14 -40 15 -58 0 -45 34 -107 69
-128 24 -14 31 -26 33 -58 2 -33 7 -41 23 -41 16 0 21 8 23 38 3 29 7 37 23
37 17 0 19 -7 19 -59 0 -58 9 -74 38 -64 8 3 12 27 12 73 l0 68 38 -20 c35
-18 92 -19 138 -1 11 4 14 -5 14 -36 0 -29 5 -44 16 -48 20 -7 34 13 34 50 0
21 5 27 21 27 18 0 20 -6 19 -47 -3 -70 -2 -73 19 -73 24 0 31 19 31 86 0 41
4 54 15 54 22 0 75 78 75 111 l0 27 99 4 c82 2 105 7 128 24 62 46 52 122 -21
155 -23 10 -50 19 -60 19 -10 0 -39 16 -63 36 -48 39 -73 39 -73 0 0 -17 -9
-30 -29 -42 -16 -10 -34 -28 -40 -41 -14 -30 -14 -90 -1 -98 6 -3 10 -28 10
-54 0 -39 -5 -52 -27 -73 -37 -34 -68 -40 -114 -21 -36 14 -41 14 -66 -2 -39
-26 -97 -24 -126 3 -27 26 -49 28 -67 7 -7 -9 -29 -15 -55 -15 -65 0 -117 62
-102 122 4 13 -2 31 -14 46 -50 64 -2 162 80 162 34 0 44 5 66 34 42 55 96 65
152 28 18 -11 29 -12 54 -3 46 16 62 14 102 -14 31 -21 41 -23 67 -14 43 16
40 58 -4 50 -4 -1 -28 8 -53 20 -34 17 -55 20 -91 15 -30 -4 -61 -1 -87 9 -46
16 -48 16 -95 4z m575 -212 c24 -4 47 -15 58 -29 19 -22 18 -23 -8 -45 -23
-20 -37 -23 -109 -23 -90 0 -106 8 -106 52 0 22 8 33 35 49 19 12 35 25 35 31
0 5 12 1 28 -10 15 -10 45 -22 67 -25z"/>
<path d="M715 1699 c-192 -20 -328 -91 -489 -260 -117 -122 -149 -169 -181
-272 -78 -244 40 -553 252 -665 181 -95 443 -102 654 -16 134 55 231 134 316
259 96 142 123 226 123 384 0 178 -44 300 -149 414 -66 71 -137 109 -257 136
-115 25 -170 29 -269 20z m302 -96 c250 -168 321 -297 293 -537 -12 -103 -39
-205 -71 -269 -34 -67 -133 -152 -233 -202 -214 -106 -448 -115 -628 -24 -108
54 -226 187 -270 301 -21 57 -26 170 -9 241 16 68 63 167 112 237 41 59 133
132 225 178 111 56 307 100 454 101 78 1 90 -2 127 -26z m198 -93 c10 -11 16
-20 13 -20 -3 0 -13 9 -23 20 -10 11 -16 20 -13 20 3 0 13 -9 23 -20z m-892
-964 c45 -21 48 -29 5 -14 -17 6 -63 43 -102 81 l-71 70 66 -60 c36 -32 82
-67 102 -77z"/>
<path d="M955 1225 c-24 -23 -30 -49 -25 -105 3 -35 18 -50 51 -50 36 0 69 48
69 98 0 33 -36 82 -60 82 -6 0 -22 -11 -35 -25z"/>
<path d="M386 1198 c-30 -42 -12 -146 27 -161 8 -3 25 0 38 7 28 14 39 56 26
106 -17 67 -61 91 -91 48z"/>
<path d="M866 963 c-30 -58 -118 -112 -184 -113 -53 0 -101 25 -113 60 -7 19
-18 30 -30 30 -41 0 -9 -83 42 -111 40 -21 121 -27 170 -13 95 28 215 174 144
174 -8 0 -21 -12 -29 -27z"/>
<path d="M1460 1617 c0 -8 43 -259 95 -560 52 -301 95 -551 95 -557 0 -6 51
-10 135 -10 74 0 135 3 135 6 0 3 47 256 105 561 58 306 105 557 103 558 -2 2
-51 7 -110 10 l-107 8 -5 -24 c-3 -13 -28 -175 -56 -359 -53 -349 -60 -392
-66 -375 -4 11 -114 730 -114 745 0 6 -44 10 -105 10 -80 0 -105 -3 -105 -13z"/>
<path d="M2250 1373 c0 -137 -3 -393 -7 -570 l-6 -323 256 0 257 0 0 85 0 85
-130 0 -130 0 0 170 0 170 100 0 100 0 0 85 0 85 -94 0 c-52 0 -97 4 -101 9
-3 6 -2 71 1 145 l7 136 129 0 128 0 0 85 0 85 -255 0 -255 0 0 -247z"/>
<path d="M2880 1050 l0 -570 255 0 255 0 0 80 0 79 -132 3 -133 3 4 488 3 487
-126 0 -126 0 0 -570z"/>
<path d="M4451 1603 c-62 -22 -134 -96 -154 -159 -8 -27 -18 -84 -22 -126 l-6
-78 120 0 119 0 4 81 c3 70 6 83 27 100 31 26 64 24 98 -5 27 -23 28 -29 28
-108 0 -49 -6 -97 -14 -117 -16 -36 -60 -61 -110 -61 -36 0 -41 -13 -41 -96
l0 -64 39 0 c97 0 125 -39 125 -176 1 -100 -14 -139 -58 -150 -62 -15 -94 24
-103 125 l-6 71 -115 0 -115 0 6 -77 c18 -223 105 -312 308 -313 220 -1 315
114 307 368 -4 126 -21 168 -87 220 -23 17 -38 32 -32 32 24 0 91 74 108 118
26 68 24 211 -4 272 -28 62 -86 116 -150 140 -67 25 -206 26 -272 3z"/>
<path d="M3507 1273 c-4 -186 -7 -440 -7 -564 l0 -226 38 -7 c20 -3 76 -6 125
-6 l87 0 0 233 c1 187 3 236 15 251 8 11 17 18 19 15 2 -2 39 -115 82 -251
l78 -248 126 0 127 0 -109 313 -108 312 105 252 c58 139 105 255 105 258 0 3
-54 4 -121 3 l-121 -3 -90 -215 c-49 -118 -94 -219 -100 -225 -7 -7 -9 62 -6
218 l4 227 -121 0 -122 0 -6 -337z"/>
<path d="M5030 1036 l0 -563 38 -7 c20 -3 73 -6 118 -6 l81 0 6 68 c4 37 7
293 7 570 l0 502 -125 0 -125 0 0 -564z"/>
<path d="M685 281 c-9 -16 3 -31 26 -31 14 0 19 6 17 17 -4 20 -33 29 -43 14z"/>
<path d="M1618 259 c-3 -28 -7 -32 -37 -34 -44 -4 -61 -27 -61 -81 0 -53 25
-74 87 -74 l43 0 0 110 c0 89 -3 110 -14 110 -9 0 -16 -12 -18 -31z m0 -112
c2 -27 -1 -39 -13 -43 -22 -9 -45 14 -45 46 0 33 8 42 35 38 15 -2 21 -12 23
-41z"/>
<path d="M2490 192 c0 -101 7 -122 42 -122 19 0 25 25 8 35 -5 3 -10 46 -10
96 0 82 -1 89 -20 89 -19 0 -20 -7 -20 -98z"/>
<path d="M5066 274 c-12 -12 -16 -37 -16 -110 0 -87 1 -94 20 -94 18 0 20 7
20 55 0 52 1 55 25 55 18 0 25 5 25 20 0 15 -7 20 -25 20 -15 0 -25 6 -25 14
0 15 27 29 40 21 10 -6 21 20 13 29 -12 12 -62 6 -77 -10z"/>
<path d="M5187 272 c-13 -15 -17 -39 -17 -110 0 -85 1 -92 20 -92 18 0 20 7
20 55 0 52 1 55 25 55 18 0 25 5 25 20 0 15 -7 20 -25 20 -16 0 -25 6 -25 15
0 14 5 17 40 19 8 1 16 9 18 19 5 24 -59 24 -81 -1z"/>
<path d="M178 273 c-16 -4 -18 -18 -18 -104 l0 -99 45 0 c80 0 125 38 125 106
0 73 -72 118 -152 97z m87 -47 c22 -16 26 -76 6 -100 -7 -9 -26 -16 -42 -16
-29 0 -29 0 -29 65 0 61 1 65 23 65 13 0 32 -6 42 -14z"/>
<path d="M1770 170 l0 -100 49 0 c68 0 98 14 117 54 22 45 12 98 -23 126 -19
15 -40 20 -84 20 l-59 0 0 -100z m110 52 c16 -13 23 -29 22 -52 -1 -38 -15
-55 -54 -64 l-28 -6 0 70 c0 62 2 70 19 70 10 0 29 -8 41 -18z"/>
<path d="M3212 198 c-45 -108 -49 -128 -24 -128 12 0 23 9 27 20 9 29 90 29
98 0 5 -20 47 -29 47 -10 0 5 -16 50 -36 100 -31 77 -39 90 -59 90 -19 0 -28
-12 -53 -72z m72 -25 c6 -20 4 -23 -18 -23 -29 0 -31 6 -15 47 11 30 19 24 33
-24z"/>
<path d="M4740 180 c0 -92 19 -124 68 -118 38 4 42 36 5 40 -24 3 -28 8 -31
41 -3 34 -1 37 22 37 19 0 26 5 26 20 0 15 -7 20 -25 20 -18 0 -25 5 -25 20 0
13 -7 20 -20 20 -18 0 -20 -7 -20 -80z"/>
<path d="M403 218 c-26 -12 -47 -66 -37 -94 14 -39 36 -54 81 -54 36 0 43 3
43 20 0 13 -5 18 -15 14 -20 -8 -65 4 -65 16 0 6 20 10 45 10 45 0 45 0 45 34
0 54 -45 79 -97 54z m61 -43 c4 -11 -2 -15 -24 -15 -20 0 -30 5 -30 15 0 9 9
15 24 15 13 0 26 -7 30 -15z"/>
<path d="M563 220 c-42 -17 -24 -74 30 -93 28 -10 9 -29 -24 -25 -23 4 -29 1
-29 -14 0 -15 8 -18 44 -18 26 0 48 6 56 15 19 23 4 61 -30 75 -38 16 -38 30
0 30 32 0 42 23 14 34 -20 8 -34 7 -61 -4z"/>
<path d="M800 217 c-14 -7 -28 -26 -34 -45 -13 -45 17 -87 63 -87 23 0 31 -4
29 -15 -2 -10 -15 -15 -38 -15 -33 0 -49 -9 -50 -27 0 -5 22 -8 48 -8 70 0 82
17 82 117 l0 81 -31 6 c-41 8 -40 8 -69 -7z m60 -61 c0 -39 -21 -53 -45 -30
-18 18 -18 20 -5 45 6 10 20 19 30 19 16 0 20 -7 20 -34z"/>
<path d="M963 223 c-21 -4 -23 -10 -23 -79 0 -67 2 -74 20 -74 18 0 20 7 20
61 0 57 1 60 23 57 19 -3 22 -10 25 -60 3 -50 6 -58 22 -58 18 0 20 7 20 64 0
56 -3 67 -22 80 -22 16 -41 18 -85 9z"/>
<path d="M1200 220 c-20 -12 -4 -28 34 -32 43 -5 46 -28 4 -28 -39 0 -58 -15
-58 -46 0 -33 23 -45 77 -42 l48 3 3 57 c2 47 -1 61 -18 78 -21 21 -65 26 -90
10z m70 -100 c0 -15 -7 -20 -25 -20 -24 0 -34 18 -18 33 15 15 43 7 43 -13z"/>
<path d="M1373 223 c-21 -4 -23 -10 -23 -79 0 -67 2 -74 20 -74 18 0 20 7 20
61 0 57 1 60 23 57 19 -3 22 -10 25 -60 3 -50 6 -58 22 -58 18 0 20 7 20 60 0
86 -26 109 -107 93z"/>
<path d="M2005 205 c-31 -30 -33 -82 -5 -113 29 -31 110 -32 110 -2 0 16 -5
19 -27 14 -17 -3 -36 1 -48 10 -19 14 -17 15 33 16 51 0 52 1 52 29 0 20 -9
36 -26 50 -35 27 -59 26 -89 -4z m73 -32 c2 -9 -7 -13 -27 -13 -23 0 -29 4
-24 16 6 17 44 15 51 -3z"/>
<path d="M2335 205 c-31 -30 -33 -82 -5 -113 29 -31 110 -32 110 -2 0 16 -5
19 -27 14 -17 -3 -36 1 -48 10 -19 14 -17 15 33 16 51 0 52 1 52 29 0 20 -9
36 -26 50 -35 27 -59 26 -89 -4z m73 -32 c2 -9 -7 -13 -27 -13 -23 0 -29 4
-24 16 6 17 44 15 51 -3z"/>
<path d="M690 145 c0 -68 2 -75 20 -75 18 0 20 7 20 75 0 68 -2 75 -20 75 -18
0 -20 -7 -20 -75z"/>
<path d="M2155 193 c4 -16 16 -49 27 -75 29 -68 49 -64 82 17 31 78 32 85 7
85 -13 0 -22 -12 -31 -45 -7 -25 -16 -45 -20 -45 -4 0 -13 20 -20 45 -9 34
-17 45 -32 45 -17 0 -19 -4 -13 -27z"/>
<path d="M2595 200 c-11 -12 -19 -36 -19 -55 0 -47 28 -75 75 -75 44 0 69 27
69 75 0 17 -7 41 -16 53 -20 30 -83 31 -109 2z m73 -22 c17 -17 15 -53 -3 -68
-31 -26 -60 13 -44 58 9 24 29 28 47 10z"/>
<path d="M2760 120 c0 -93 1 -100 20 -100 15 0 20 7 20 25 0 22 4 25 34 25 42
0 66 29 66 77 0 49 -29 73 -90 73 l-50 0 0 -100z m88 58 c28 -28 2 -88 -33
-74 -10 3 -15 19 -15 46 0 32 4 40 18 40 10 0 23 -5 30 -12z"/>
<path d="M2950 200 c-12 -12 -20 -33 -20 -55 0 -50 28 -75 85 -75 33 0 45 4
45 15 0 10 -10 15 -34 15 -18 0 -39 7 -46 15 -11 13 -6 15 39 15 49 0 51 1 51
28 0 57 -78 84 -120 42z m78 -27 c2 -9 -7 -13 -27 -13 -23 0 -29 4 -24 16 6
17 44 15 51 -3z"/>
<path d="M3370 213 c0 -4 10 -38 21 -75 17 -52 26 -68 40 -68 11 0 19 6 19 13
1 6 7 26 14 42 l13 30 12 -42 c9 -32 17 -43 31 -43 15 0 24 15 40 66 25 81 25
84 1 84 -15 0 -21 -10 -26 -40 -9 -56 -21 -57 -34 -5 -15 58 -35 58 -50 0 -6
-25 -13 -45 -16 -45 -3 0 -10 20 -16 45 -8 33 -16 45 -30 45 -11 0 -19 -3 -19
-7z"/>
<path d="M3625 200 c-11 -12 -19 -36 -19 -55 0 -49 27 -75 81 -75 56 0 62 27
6 32 -56 5 -55 28 1 28 43 0 46 2 46 26 0 14 -5 34 -10 45 -15 27 -80 26 -105
-1z m79 -25 c4 -11 -2 -15 -24 -15 -29 0 -38 9 -23 23 12 12 41 7 47 -8z"/>
<path d="M3792 208 c-24 -24 -14 -57 23 -75 44 -21 45 -33 1 -33 -21 0 -36 -6
-40 -16 -5 -13 3 -15 46 -12 80 5 93 52 25 86 -36 17 -34 32 3 32 20 0 30 5
30 15 0 19 -70 21 -88 3z"/>
<path d="M3936 198 c-9 -12 -16 -36 -16 -53 0 -48 25 -75 69 -75 67 0 102 71
61 123 -28 36 -91 39 -114 5z m85 -32 c20 -43 -18 -85 -49 -54 -25 25 -8 78
25 78 7 0 18 -11 24 -24z"/>
<path d="M4100 145 c0 -68 2 -75 20 -75 18 0 20 7 20 60 0 52 2 60 19 60 23 0
31 -19 31 -76 0 -37 3 -44 20 -44 18 0 20 7 20 61 0 52 2 60 18 57 13 -2 18
-15 20 -61 3 -49 6 -57 22 -57 18 0 20 7 20 64 0 39 -5 68 -12 74 -7 5 -55 10
-105 11 l-93 0 0 -74z"/>
<path d="M4370 200 c-12 -12 -20 -33 -20 -55 0 -50 28 -75 85 -75 33 0 45 4
45 15 0 10 -10 15 -34 15 -18 0 -39 7 -46 15 -11 13 -6 15 39 15 49 0 51 1 51
28 0 57 -78 84 -120 42z m78 -27 c2 -9 -7 -13 -27 -13 -23 0 -29 4 -24 16 6
17 44 15 51 -3z"/>
<path d="M4606 204 c-28 -28 -12 -64 35 -79 31 -10 16 -30 -20 -27 -27 3 -32
0 -29 -15 2 -12 14 -19 35 -21 76 -7 101 52 38 89 -38 23 -37 44 1 36 22 -4
40 14 27 27 -13 12 -72 5 -87 -10z"/>
<path d="M4870 160 c0 -70 21 -100 69 -100 57 0 61 6 61 86 0 67 -2 74 -20 74
-18 0 -20 -7 -20 -61 0 -57 -1 -60 -22 -57 -20 3 -23 10 -26 61 -3 49 -6 57
-22 57 -18 0 -20 -7 -20 -60z"/>
</g>
</svg>
